<svg width="16" height="16" viewBox="0 0 16 16" fill="none" xmlns="http://www.w3.org/2000/svg">
<g clip-path="url(#clip0_3_205)">
<path d="M0.621338 8.00001C0.621338 9.90392 1.39874 11.7299 2.78251 13.0761C4.16629 14.4224 6.0431 15.1787 8.00006 15.1787C9.95702 15.1787 11.8338 14.4224 13.2176 13.0761C14.6014 11.7299 15.3788 9.90392 15.3788 8.00001C15.3788 6.09609 14.6014 4.27016 13.2176 2.92389C11.8338 1.57762 9.95702 0.821289 8.00006 0.821289C6.0431 0.821289 4.16629 1.57762 2.78251 2.92389C1.39874 4.27016 0.621338 6.09609 0.621338 8.00001Z" fill="#666363"/>
<path d="M1.47021 8.00006C1.47021 9.6849 2.15817 11.3007 3.38274 12.4921C4.6073 13.6835 6.26817 14.3528 7.99997 14.3528C9.73177 14.3528 11.3926 13.6835 12.6172 12.4921C13.8418 11.3007 14.5297 9.6849 14.5297 8.00006C14.5297 6.31521 13.8418 4.69937 12.6172 3.50801C11.3926 2.31664 9.73177 1.64734 7.99997 1.64734C6.26817 1.64734 4.6073 2.31664 3.38274 3.50801C2.15817 4.69937 1.47021 6.31521 1.47021 8.00006Z" fill="white"/>
<path d="M7.34741 8.00003C7.34741 8.16839 7.41616 8.32986 7.53852 8.44891C7.66088 8.56795 7.82684 8.63483 7.99989 8.63483C8.17294 8.63483 8.3389 8.56795 8.46127 8.44891C8.58363 8.32986 8.65237 8.16839 8.65237 8.00003C8.65237 7.83167 8.58363 7.67021 8.46127 7.55116C8.3389 7.43211 8.17294 7.36523 7.99989 7.36523C7.82684 7.36523 7.66088 7.43211 7.53852 7.55116C7.41616 7.67021 7.34741 7.83167 7.34741 8.00003Z" fill="#666363"/>
<path d="M8.26112 7.38971C8.26112 7.53011 8.14416 7.64387 7.99992 7.64387C7.85568 7.64387 7.73872 7.53011 7.73872 7.38971V3.95875C7.73872 3.81835 7.85568 3.70459 7.99992 3.70459C8.14416 3.70459 8.26112 3.81835 8.26112 3.95875V7.38971ZM7.45048 8.31659C7.5604 8.22563 7.72528 8.23859 7.81872 8.34555C7.84089 8.37074 7.85775 8.40016 7.86829 8.43202C7.87883 8.46389 7.88283 8.49755 7.88005 8.531C7.87728 8.56445 7.86778 8.59699 7.85212 8.62668C7.83647 8.65637 7.81498 8.6826 7.78896 8.70379L6.19704 10.021C6.08712 10.1119 5.92224 10.099 5.8288 9.99203C5.80662 9.96683 5.78976 9.93742 5.77922 9.90556C5.76868 9.87369 5.76468 9.84003 5.76746 9.80658C5.77024 9.77313 5.77974 9.74059 5.79539 9.7109C5.81104 9.68121 5.83253 9.65498 5.85856 9.63379L7.45048 8.31659Z" fill="#666363"/>
</g>
<defs>
<clipPath id="clip0_3_205">
<rect width="16" height="16" fill="white"/>
</clipPath>
</defs>
</svg>
