<svg width="19" height="18" viewBox="0 0 19 18" fill="none" xmlns="http://www.w3.org/2000/svg">
<path d="M6.6366 14.5815C6.6366 13.2065 7.06847 11.9015 7.86382 10.8061C8.31834 10.2002 8.86389 9.68753 9.50024 9.26796C8.84121 8.33584 7.88647 7.61322 6.77292 7.26373C7.86382 6.70436 8.61385 5.51585 8.61385 4.18738C8.61385 2.27629 7.11376 0.738281 5.25015 0.738281C3.38638 0.738281 1.88646 2.27645 1.88646 4.18738C1.88646 5.53907 2.63648 6.70432 3.72738 7.26373C1.56827 7.93949 0 9.99041 0 12.4141C0 15.3739 2.34098 15.2573 5.25015 15.2573H6.68205C6.65922 15.0242 6.63655 14.8143 6.63655 14.5814L6.6366 14.5815Z" fill="white"/>
<path d="M12.0459 17.4014H12.7733H13.5006C16.0461 17.4014 18.0235 17.2848 18.0235 14.5582C18.0235 12.1345 16.4552 10.0836 14.2961 9.40777C15.387 8.84841 16.137 7.65989 16.137 6.33142C16.137 4.42033 14.637 2.88232 12.7733 2.88232C10.9096 2.88232 9.40965 4.4205 9.40965 6.33142C9.40965 7.68311 10.1597 8.84836 11.2506 9.40777C9.09146 10.0835 7.52319 12.1345 7.52319 14.5582C7.52303 17.2849 9.50032 17.4014 12.0456 17.4014H12.0459Z" fill="white"/>
</svg>
