<svg width="20" height="20" viewBox="0 0 20 20" fill="none" xmlns="http://www.w3.org/2000/svg">
<path d="M9.99992 1.52004C5.31645 1.52004 1.51992 5.31658 1.51992 10C1.51992 14.6835 5.31645 18.48 9.99992 18.48C14.6834 18.48 18.4799 14.6835 18.4799 10C18.4799 5.31658 14.6834 1.52004 9.99992 1.52004ZM9.99992 17.5138C5.85713 17.5138 2.48617 14.1434 2.48617 10C2.48617 5.85664 5.85651 2.48629 9.99992 2.48629C14.1433 2.48629 17.5137 5.85664 17.5137 10C17.5137 14.1428 14.1433 17.5138 9.99992 17.5138Z" fill="white" stroke="white" stroke-width="0.3"/>
<path d="M9.97196 5.63318C8.28071 5.63318 7.33634 6.67818 7.32446 8.33443H8.05946C8.03634 7.13318 8.66571 6.25193 9.93759 6.25193C10.847 6.25193 11.6051 6.89318 11.6051 7.8263C11.6051 8.43255 11.2782 8.92255 10.847 9.33068C9.96071 10.1532 9.71259 10.5401 9.66759 11.6669H10.412C10.413 11.6417 10.4141 11.6171 10.4151 11.5931C10.4552 10.6455 10.4552 10.6437 11.3251 9.7738C11.9201 9.2138 12.3395 8.6538 12.3395 7.79068C12.3395 6.43818 11.2663 5.63318 9.97259 5.63318H9.97196Z" fill="white"/>
<path d="M9.97196 5.63318C8.28071 5.63318 7.33634 6.67818 7.32446 8.33443H8.05946C8.03634 7.13318 8.66571 6.25193 9.93759 6.25193C10.847 6.25193 11.6051 6.89318 11.6051 7.8263C11.6051 8.43255 11.2782 8.92255 10.847 9.33068C9.96071 10.1532 9.71259 10.5401 9.66759 11.6669H10.412C10.413 11.6417 10.4141 11.6171 10.4151 11.5931C10.4552 10.6455 10.4552 10.6437 11.3251 9.7738C11.9201 9.2138 12.3395 8.6538 12.3395 7.79068C12.3395 6.43818 11.2663 5.63318 9.97259 5.63318H9.97196Z" stroke="white"/>
<path d="M9.99999 12.9994C9.63249 12.9994 9.33374 13.2975 9.33374 13.6656C9.33374 14.0338 9.63249 14.3319 9.99999 14.3319C10.3675 14.3319 10.6662 14.0338 10.6662 13.6656C10.6662 13.2981 10.3681 12.9994 9.99999 12.9994Z" fill="white"/>
<path d="M9.99999 12.9994C9.63249 12.9994 9.33374 13.2975 9.33374 13.6656C9.33374 14.0338 9.63249 14.3319 9.99999 14.3319C10.3675 14.3319 10.6662 14.0338 10.6662 13.6656C10.6662 13.2981 10.3681 12.9994 9.99999 12.9994Z" stroke="white"/>
</svg>
