<svg width="29" height="25" viewBox="0 0 29 25" fill="none" xmlns="http://www.w3.org/2000/svg">
<path fill-rule="evenodd" clip-rule="evenodd" d="M2.2501 2.04786C2.2501 1.40567 1.7464 0.88501 1.12507 0.88501C0.503717 0.88501 0 1.40567 0 2.04786C0 2.69018 0.503717 3.21084 1.12507 3.21084C1.7464 3.21084 2.2501 2.69018 2.2501 2.04786ZM2.2501 9.02508C2.2501 8.38289 1.7464 7.86223 1.12507 7.86223C0.503717 7.86223 0 8.38289 0 9.02508C0 9.66741 0.503717 10.1881 1.12507 10.1881C1.7464 10.1881 2.2501 9.66741 2.2501 9.02508ZM0 16.0024C0 15.3601 0.503717 14.8395 1.12507 14.8395C1.7464 14.8395 2.2501 15.3601 2.2501 16.0024C2.2501 16.6446 1.7464 17.1653 1.12507 17.1653C0.503717 17.1653 0 16.6446 0 16.0024ZM2.2501 22.9797C2.2501 22.3373 1.7464 21.8167 1.12507 21.8167C0.503717 21.8167 0 22.3373 0 22.9797C0 23.6218 0.503717 24.1425 1.12507 24.1425C1.7464 24.1425 2.2501 23.6218 2.2501 22.9797ZM6.75043 2.04786C6.75043 1.40567 7.25413 0.88501 7.87558 0.88501H27.8569C28.4782 0.88501 28.982 1.40567 28.982 2.04786C28.982 2.69018 28.4782 3.21084 27.8569 3.21084H7.87558C7.25413 3.21084 6.75043 2.69018 6.75043 2.04786ZM28.982 9.02508C28.982 8.38289 28.4782 7.86223 27.8569 7.86223H7.87558C7.25413 7.86223 6.75043 8.38289 6.75043 9.02508C6.75043 9.66741 7.25413 10.1881 7.87558 10.1881H27.8569C28.4782 10.1881 28.982 9.66741 28.982 9.02508ZM6.75043 16.0024C6.75043 15.3601 7.25413 14.8395 7.87558 14.8395H27.8569C28.4782 14.8395 28.982 15.3601 28.982 16.0024C28.982 16.6446 28.4782 17.1653 27.8569 17.1653H7.87558C7.25413 17.1653 6.75043 16.6446 6.75043 16.0024ZM28.982 22.9797C28.982 22.3373 28.4782 21.8167 27.8569 21.8167H7.87558C7.25413 21.8167 6.75043 22.3373 6.75043 22.9797C6.75043 23.6218 7.25413 24.1425 7.87558 24.1425H27.8569C28.4782 24.1425 28.982 23.6218 28.982 22.9797Z" fill="black"/>
</svg>
